<svg width="173" height="170" viewBox="0 0 173 170" fill="none" xmlns="http://www.w3.org/2000/svg">
<path d="M34.7934 38.343L77.0806 3.75946C79.1943 2.03186 81.6836 0.791421 84.363 0.27269C87.2824 -0.295659 90.8942 -0.151316 94.1122 2.42881L106.401 12.4651C106.401 12.4651 107.111 13.1868 107.111 11.6352V9.01443C107.111 9.01443 107.111 6.12758 109.419 6.12758H116.933C116.933 6.12758 119.508 5.9652 119.508 8.21153V22.4383C119.508 22.4383 119.399 22.9751 120.259 23.6156L137.852 37.8514C137.852 37.8514 140.867 40.3413 139.753 43.3905C139.753 43.3905 136.856 50.328 130.122 44.5543L90.4732 11.766C90.4732 11.766 85.8295 8.10778 82.1588 11.766L74.6682 18.0719C74.6682 18.0719 74.2201 18.6177 75.3561 18.6538C75.3561 18.6538 81.4754 20.0341 85.6349 26.2769C85.6349 26.2769 86.2414 27.4452 88.2328 27.6933C88.2328 27.6933 95.0627 28.2255 95.8819 31.4868C95.8819 31.4868 96.9772 36.232 94.3385 40.7653C94.3385 40.7653 90.3375 46.4172 83.3356 46.8547C83.3356 46.8547 77.4246 46.5661 76.7909 51.4602C76.7909 51.4602 76.7909 70.581 92.6095 77.6493C92.6095 77.6493 109.705 86.5309 117.797 72.5748C117.797 72.5748 124.708 61.7897 113.158 54.7259C113.158 54.7259 111.52 53.9095 109.614 54.3651C109.614 54.3651 100.793 55.5424 98.8872 53.914C98.8872 53.914 96.9139 52.3713 95.9996 49.6784C95.9996 49.6784 94.9948 48.1268 96.6875 47.5359C96.6875 47.5359 100.164 45.2083 100.575 42.6553C100.575 42.6553 101.168 39.2362 105.839 38.2799C105.839 38.2799 107.808 38.2799 107.763 37.0936C107.763 37.0936 108.039 32.9888 107.351 32.2581C107.351 32.2581 107.351 31.8476 107.582 31.8476C107.582 31.8476 126.338 38.5099 130.289 61.0138C130.289 61.0138 134.575 90.7349 99.3851 89.9861C99.3851 89.9861 75.0665 88.8088 68.3317 56.6971C68.3317 56.6971 66.6389 44.7392 79.0539 42.6372C79.5563 42.5515 80.0678 42.4974 80.5792 42.4794C82.711 42.4027 91.22 41.6719 90.944 34.8608C90.944 34.8608 91.2608 33.6699 90.5457 33.4309C90.5457 33.4309 89.5092 32.2491 85.576 31.8792C85.1687 31.8431 84.7704 31.7349 84.4083 31.5499C83.8742 31.2793 83.1229 30.7786 82.4032 29.908C82.272 29.7456 82.1543 29.5742 82.0457 29.3938C81.0907 27.8331 74.9624 18.8027 64.0817 24.7703C64.0817 24.7703 53.2417 32.2401 58.3426 40.8194C58.3426 40.8194 61.6104 44.3964 64.403 40.4225C64.403 40.4225 67.1911 38.1175 67.9107 31.0492C67.9107 31.0492 68.1506 29.4615 68.6304 31.2883C68.6304 31.2883 69.8162 46.1285 60.8093 46.6157C58.7364 46.7284 56.6634 46.1105 55.0703 44.7888C54.3506 44.1889 53.64 43.386 53.1648 42.3305C53.1648 42.3305 52.2098 40.9818 52.2867 42.5696V64.6855C52.2867 64.6855 51.4132 75.3308 61.8322 79.3047C61.8322 79.3047 67.7523 82.1735 73.4145 79.9678C73.4145 79.9678 75.0891 79.3498 75.7318 79.9678C75.7318 79.9678 80.362 85.8453 81.9099 86.1024C81.9099 86.1024 83.9693 87 81.6519 87.7713C81.6519 87.7713 54.251 98.1008 43.832 73.4724C43.0128 71.5418 42.619 69.4534 42.619 67.3559V45.5692C42.619 45.5692 42.7186 44.5498 41.5192 45.0053C41.5192 45.0053 37.7852 48.429 35.3139 45.9706C35.3139 45.9706 31.8967 43.607 33.3677 40.2105C33.6845 39.4797 34.205 38.8573 34.8206 38.3521L34.7934 38.343Z" fill="url(#paint0_linear_3327_18001)"/>
<path d="M169.925 110V131.434C169.925 134.755 170.984 136.264 173 136.465V142H172.849C166.9 142 163.573 138.377 163.573 131.887V126.151H158.28V142H151.928V110.302H158.28V120.616H163.573V110H169.925ZM141.241 126.201H129.344V120.667H147.593V127.157C147.593 136.717 141.795 142 129.646 142H124V136.465H129.646C137.712 136.465 141.241 133.346 141.241 127.61V126.201Z" fill="#7E5938"/>
<path d="M105.55 127.573C103.228 131.029 97.3707 133.484 91.2611 133.484V127.974C97.6232 127.974 102.268 124.818 102.268 120.61V120.51H91.766V115H119.133V120.51H108.833V120.61C108.833 124.768 113.427 127.873 119.638 127.873V133.283C113.73 133.283 107.924 130.929 105.55 127.573ZM126 137.19V142.7H108.631V147.008H114.841C116.861 147.008 118.022 148.01 118.022 150.164V160.783H98.9865V164.49H118.729V170H96.0074C93.8362 170 92.6244 169.048 92.6244 166.944V156.075H111.66V152.418H92.6244V147.008H102.268V142.7H85V137.19H126Z" fill="#7E5938"/>
<path d="M83.3579 110V131.434C83.3579 134.755 84.6052 136.264 87 136.465V142H86.8503C82.1106 142 78.9176 139.937 77.6703 136.113H68.2408V130.579H77.0716V126H68.2408V120.465H77.0716V110H83.3579ZM59.5098 123.082H46.3883V117.547H65.846V127.509C65.846 137.119 59.9588 142 48.1345 142H41V136.465H48.1345C54.1215 136.465 57.5141 135.107 58.8612 131.987H46.7375V126.956H59.5098V123.082Z" fill="#7E5938"/>
<path d="M39.3157 110V130.226C39.3157 134.05 40.6279 136.264 43 136.465V142H42.8486C36.5904 142 32.9566 138.075 32.9566 131.384V110H39.3157ZM19.784 125.799V127.761C19.784 132.591 23.973 136.164 29.4237 136.164V141.698C23.8216 141.698 18.8756 139.384 16.8063 135.459C14.7876 139.333 9.48826 142 3.38146 142H0V136.465H3.28052C9.28639 136.465 13.4249 132.742 13.4249 127.761V125.799H5.40023V120.264H28.0106V125.799H19.784Z" fill="#7E5938"/>
<defs>
<linearGradient id="paint0_linear_3327_18001" x1="40.9614" y1="-3.02232e-06" x2="131.731" y2="90.3088" gradientUnits="userSpaceOnUse">
<stop stop-color="#D9BFA3"/>
<stop offset="1" stop-color="#D19A6A"/>
</linearGradient>
</defs>
</svg>
