<svg width="222" height="231" viewBox="0 0 222 231" fill="none" xmlns="http://www.w3.org/2000/svg">
<rect width="222" height="231" rx="16" fill="white"/>
<path d="M59.2934 68.843L101.581 34.2595C103.694 32.5319 106.184 31.2914 108.863 30.7727C111.782 30.2043 115.394 30.3487 118.612 32.9288L130.901 42.9651C130.901 42.9651 131.611 43.6868 131.611 42.1352V39.5144C131.611 39.5144 131.611 36.6276 133.919 36.6276H141.433C141.433 36.6276 144.008 36.4652 144.008 38.7115V52.9383C144.008 52.9383 143.899 53.4751 144.759 54.1156L162.352 68.3514C162.352 68.3514 165.367 70.8413 164.253 73.8905C164.253 73.8905 161.356 80.828 154.622 75.0543L114.973 42.266C114.973 42.266 110.329 38.6078 106.659 42.266L99.1682 48.5719C99.1682 48.5719 98.7201 49.1177 99.8561 49.1538C99.8561 49.1538 105.975 50.5341 110.135 56.7769C110.135 56.7769 110.741 57.9452 112.733 58.1933C112.733 58.1933 119.563 58.7255 120.382 61.9868C120.382 61.9868 121.477 66.732 118.839 71.2653C118.839 71.2653 114.837 76.9172 107.836 77.3547C107.836 77.3547 101.925 77.0661 101.291 81.9602C101.291 81.9602 101.291 101.081 117.11 108.149C117.11 108.149 134.205 117.031 142.297 103.075C142.297 103.075 149.208 92.2897 137.658 85.2259C137.658 85.2259 136.02 84.4095 134.114 84.8651C134.114 84.8651 125.293 86.0424 123.387 84.414C123.387 84.414 121.414 82.8713 120.5 80.1784C120.5 80.1784 119.495 78.6268 121.188 78.0359C121.188 78.0359 124.664 75.7083 125.075 73.1553C125.075 73.1553 125.668 69.7362 130.339 68.7799C130.339 68.7799 132.308 68.7799 132.263 67.5936C132.263 67.5936 132.539 63.4888 131.851 62.7581C131.851 62.7581 131.851 62.3476 132.082 62.3476C132.082 62.3476 150.838 69.0099 154.789 91.5138C154.789 91.5138 159.075 121.235 123.885 120.486C123.885 120.486 99.5665 119.309 92.8317 87.1971C92.8317 87.1971 91.1389 75.2392 103.554 73.1372C104.056 73.0515 104.568 72.9974 105.079 72.9794C107.211 72.9027 115.72 72.1719 115.444 65.3608C115.444 65.3608 115.761 64.1699 115.046 63.9309C115.046 63.9309 114.009 62.7491 110.076 62.3792C109.669 62.3431 109.27 62.2349 108.908 62.0499C108.374 61.7793 107.623 61.2786 106.903 60.408C106.772 60.2456 106.654 60.0742 106.546 59.8938C105.591 58.3331 99.4624 49.3027 88.5817 55.2703C88.5817 55.2703 77.7417 62.7401 82.8426 71.3194C82.8426 71.3194 86.1104 74.8964 88.903 70.9225C88.903 70.9225 91.6911 68.6175 92.4107 61.5492C92.4107 61.5492 92.6506 59.9615 93.1304 61.7883C93.1304 61.7883 94.3162 76.6285 85.3093 77.1157C83.2364 77.2284 81.1634 76.6105 79.5703 75.2888C78.8506 74.6889 78.14 73.886 77.6648 72.8305C77.6648 72.8305 76.7098 71.4818 76.7867 73.0696V95.1855C76.7867 95.1855 75.9132 105.831 86.3322 109.805C86.3322 109.805 92.2523 112.674 97.9145 110.468C97.9145 110.468 99.5891 109.85 100.232 110.468C100.232 110.468 104.862 116.345 106.41 116.602C106.41 116.602 108.469 117.5 106.152 118.271C106.152 118.271 78.751 128.601 68.332 103.972C67.5128 102.042 67.119 99.9534 67.119 97.8559V76.0692C67.119 76.0692 67.2186 75.0498 66.0192 75.5053C66.0192 75.5053 62.2852 78.929 59.8139 76.4706C59.8139 76.4706 56.3967 74.107 57.8677 70.7105C58.1845 69.9797 58.705 69.3573 59.3206 68.8521L59.2934 68.843Z" fill="url(#paint0_linear_3327_18016)"/>
<path d="M194.425 140.5V161.934C194.425 165.255 195.484 166.764 197.5 166.965V172.5H197.349C191.4 172.5 188.073 168.877 188.073 162.387V156.651H182.78V172.5H176.428V140.802H182.78V151.116H188.073V140.5H194.425ZM165.741 156.701H153.844V151.167H172.093V157.657C172.093 167.217 166.295 172.5 154.146 172.5H148.5V166.965H154.146C162.212 166.965 165.741 163.846 165.741 158.11V156.701Z" fill="#7E5938"/>
<path d="M130.05 158.073C127.728 161.529 121.871 163.984 115.761 163.984V158.474C122.123 158.474 126.768 155.318 126.768 151.11V151.01H116.266V145.5H143.633V151.01H133.333V151.11C133.333 155.268 137.927 158.373 144.138 158.373V163.783C138.23 163.783 132.424 161.429 130.05 158.073ZM150.5 167.69V173.2H133.131V177.508H139.341C141.361 177.508 142.522 178.51 142.522 180.664V191.283H123.486V194.99H143.229V200.5H120.507C118.336 200.5 117.124 199.548 117.124 197.444V186.575H136.16V182.918H117.124V177.508H126.768V173.2H109.5V167.69H150.5Z" fill="#7E5938"/>
<path d="M107.858 140.5V161.934C107.858 165.255 109.105 166.764 111.5 166.965V172.5H111.35C106.611 172.5 103.418 170.437 102.17 166.613H92.7408V161.079H101.572V156.5H92.7408V150.965H101.572V140.5H107.858ZM84.0098 153.582H70.8883V148.047H90.346V158.009C90.346 167.619 84.4588 172.5 72.6345 172.5H65.5V166.965H72.6345C78.6215 166.965 82.0141 165.607 83.3612 162.487H71.2375V157.456H84.0098V153.582Z" fill="#7E5938"/>
<path d="M63.8157 140.5V160.726C63.8157 164.55 65.1279 166.764 67.5 166.965V172.5H67.3486C61.0904 172.5 57.4566 168.575 57.4566 161.884V140.5H63.8157ZM44.284 156.299V158.261C44.284 163.091 48.473 166.664 53.9237 166.664V172.198C48.3216 172.198 43.3756 169.884 41.3063 165.959C39.2876 169.833 33.9883 172.5 27.8815 172.5H24.5V166.965H27.7805C33.7864 166.965 37.9249 163.242 37.9249 158.261V156.299H29.9002V150.764H52.5106V156.299H44.284Z" fill="#7E5938"/>
<defs>
<linearGradient id="paint0_linear_3327_18016" x1="65.4614" y1="30.5" x2="156.231" y2="120.809" gradientUnits="userSpaceOnUse">
<stop stop-color="#D9BFA3"/>
<stop offset="1" stop-color="#D19A6A"/>
</linearGradient>
</defs>
</svg>
