<svg width="188" height="158" viewBox="0 0 188 158" fill="none" xmlns="http://www.w3.org/2000/svg">
<path d="M3.15108 67.3133L77.45 6.59995C81.1637 3.56705 85.5375 1.38938 90.2453 0.478722C95.3746 -0.519046 101.721 -0.265644 107.375 4.2639L128.965 21.8832C128.965 21.8832 130.214 23.1502 130.214 20.4262V15.8253C130.214 15.8253 130.214 10.7573 134.27 10.7573H147.471C147.471 10.7573 151.995 10.4722 151.995 14.4158V39.3917C151.995 39.3917 151.805 40.334 153.315 41.4585L184.226 66.4502C184.226 66.4502 189.523 70.8214 187.566 76.1745C187.566 76.1745 182.477 88.3536 170.644 78.2175L100.981 20.6558C100.981 20.6558 92.8219 14.2337 86.3725 20.6558L73.2114 31.7263C73.2114 31.7263 72.4241 32.6844 74.4201 32.7478C74.4201 32.7478 85.1717 35.1709 92.4799 46.1306C92.4799 46.1306 93.5455 48.1815 97.0446 48.6171C97.0446 48.6171 109.045 49.5515 110.484 55.2768C110.484 55.2768 112.409 63.6073 107.772 71.5657C107.772 71.5657 100.742 81.488 88.4401 82.2561C88.4401 82.2561 78.0544 81.7493 76.941 90.3412C76.941 90.3412 76.941 123.909 104.735 136.318C104.735 136.318 134.771 151.91 148.989 127.409C148.989 127.409 161.133 108.475 140.838 96.0744C140.838 96.0744 137.959 94.6411 134.612 95.4409C134.612 95.4409 119.112 97.5077 115.764 94.649C115.764 94.649 112.297 91.9408 110.691 87.2132C110.691 87.2132 108.925 84.4892 111.9 83.4518C111.9 83.4518 118.007 79.3657 118.731 74.8837C118.731 74.8837 119.772 68.8812 127.979 67.2025C127.979 67.2025 131.439 67.2025 131.359 65.1198C131.359 65.1198 131.844 57.9137 130.635 56.6309C130.635 56.6309 130.635 55.9103 131.041 55.9103C131.041 55.9103 163.995 67.6063 170.938 107.113C170.938 107.113 178.469 159.29 116.639 157.976C116.639 157.976 73.9112 155.909 62.0781 99.5349C62.0781 99.5349 59.1039 78.5422 80.9172 74.852C81.7999 74.7016 82.6985 74.6065 83.5972 74.5749C87.3427 74.4402 102.293 73.1574 101.808 61.2C101.808 61.2 102.365 59.1095 101.108 58.6898C101.108 58.6898 99.2872 56.615 92.3766 55.9657C91.6608 55.9023 90.961 55.7123 90.3248 55.3876C89.3865 54.9125 88.0664 54.0335 86.8019 52.5052C86.5713 52.2201 86.3646 51.9192 86.1737 51.6024C84.4958 48.8625 73.7283 33.0091 54.6108 43.4857C54.6108 43.4857 35.5649 56.5992 44.5272 71.6607C44.5272 71.6607 50.2688 77.9403 55.1754 70.9639C55.1754 70.9639 60.0741 66.9174 61.3385 54.5086C61.3385 54.5086 61.76 51.7212 62.6029 54.9283C62.6029 54.9283 64.6864 80.9812 48.8612 81.8364C45.2191 82.0344 41.5769 80.9495 38.7776 78.6293C37.5132 77.5761 36.2647 76.1665 35.4297 74.3135C35.4297 74.3135 33.7518 71.9458 33.8869 74.7332V113.559C33.8869 113.559 32.3521 132.247 50.6585 139.224C50.6585 139.224 61.0602 144.26 71.0086 140.388C71.0086 140.388 73.9509 139.303 75.0802 140.388C75.0802 140.388 83.2154 150.706 85.9352 151.157C85.9352 151.157 89.5535 152.733 85.4819 154.087C85.4819 154.087 37.3383 172.221 19.0319 128.985C17.5926 125.596 16.9007 121.929 16.9007 118.247V79.9992C16.9007 79.9992 17.0757 78.2096 14.9683 79.0094C14.9683 79.0094 8.40759 85.0197 4.0656 80.704C4.0656 80.704 -1.93843 76.5546 0.646086 70.5917C1.20275 69.3089 2.11727 68.2161 3.19879 67.3292L3.15108 67.3133Z" fill="url(#paint0_linear_2575_27949)"/>
<defs>
<linearGradient id="paint0_linear_2575_27949" x1="13.9883" y1="-5.30585e-06" x2="173.341" y2="158.674" gradientUnits="userSpaceOnUse">
<stop stop-color="#D9BFA3"/>
<stop offset="1" stop-color="#D19A6A"/>
</linearGradient>
</defs>
</svg>
